<svg width="45" height="33" viewBox="0 0 45 33" fill="none" xmlns="http://www.w3.org/2000/svg">
<path d="M44.9537 22.9439C44.2108 18.7595 41.434 15.3997 37.7724 13.8414C39.3974 12.4788 40.4353 10.4154 40.4353 8.11032C40.4353 4.01619 37.1627 0.685272 33.14 0.685272C29.1173 0.685272 25.8447 4.01585 25.8447 8.11032C25.8447 10.4168 26.8836 12.4808 28.5103 13.8438C27.9033 14.1027 27.3152 14.4117 26.7535 14.7718C25.338 15.6796 24.1295 16.875 23.198 18.2751C22.2501 17.6454 21.2308 17.1215 20.1562 16.7195C22.4657 15.0499 23.9757 12.3047 23.9757 9.20689C23.9757 4.13017 19.9207 0 14.9363 0C9.95196 0 5.89698 4.13017 5.89698 9.20689C5.89698 12.3047 7.40691 15.0499 9.71644 16.7195C4.80144 18.5583 1.03175 22.9312 0.0539677 28.4367C-0.12662 29.4547 0.150785 30.4929 0.814428 31.2853C1.47189 32.0698 2.43113 32.5195 3.44634 32.5195H26.4263C27.4415 32.5195 28.4008 32.0698 29.0582 31.2853C29.7222 30.4929 29.9993 29.4547 29.8187 28.4367C29.6982 27.7577 29.5348 27.0961 29.3325 26.4544H42.0341C42.9082 26.4544 43.7342 26.0671 44.3 25.3922C44.8706 24.7113 45.1089 23.8187 44.9537 22.9439ZM28.4814 8.11032C28.4814 5.46982 30.5712 3.32199 33.14 3.32199C35.7087 3.32199 37.7985 5.46982 37.7985 8.11032C37.7985 10.7505 35.7087 12.8983 33.14 12.8983C30.5712 12.8983 28.4814 10.7505 28.4814 8.11032ZM8.5337 9.20689C8.5337 5.58415 11.4059 2.63672 14.9363 2.63672C18.4667 2.63672 21.3393 5.58415 21.3393 9.20689C21.3393 12.8296 18.4667 15.7771 14.9363 15.7771C11.4059 15.7771 8.5337 12.8296 8.5337 9.20689ZM27.0374 29.5917C26.9461 29.7005 26.7456 29.8828 26.4263 29.8828H3.44634C3.12705 29.8828 2.92655 29.7005 2.83523 29.5917C2.74047 29.4784 2.59009 29.2374 2.65017 28.8975C3.72889 22.8231 8.8959 18.4138 14.9363 18.4138C20.9767 18.4138 26.1441 22.8231 27.2225 28.8975C27.2829 29.2374 27.1325 29.4784 27.0374 29.5917ZM42.2792 23.6985C42.2418 23.7432 42.1604 23.8177 42.0345 23.8177H28.2243C27.4443 22.3562 26.4424 21.045 25.2673 19.9265C26.9846 17.1946 29.9196 15.535 33.14 15.535C37.6715 15.535 41.5476 18.8446 42.3575 23.405C42.3829 23.5489 42.3194 23.6508 42.2792 23.6985Z" fill="black"/>
</svg>
