<svg width="30" height="30" viewBox="0 0 30 30" fill="none" xmlns="http://www.w3.org/2000/svg">
<g clip-path="url(#clip0)">
<path d="M29.8821 27.1669L27.8226 21.1732C28.8132 19.1708 29.3371 16.939 29.3406 14.6932C29.3466 10.8259 27.8503 7.16911 25.1272 4.3967C22.4037 1.62375 18.7745 0.0629368 14.9082 0.00158923C12.8826 -0.0309302 10.917 0.342311 9.06306 1.10971C7.27496 1.84993 5.67143 2.92213 4.29706 4.2965C2.92263 5.67088 1.85042 7.27441 1.11027 9.06251C0.342867 10.9164 -0.0299641 12.883 0.00208661 14.9076C0.063317 18.7739 1.62419 22.4032 4.39714 25.1267C7.16416 27.8445 10.8115 29.3403 14.6705 29.3402C14.678 29.3402 14.686 29.3402 14.6936 29.3402C16.9393 29.3367 19.1712 28.8128 21.1737 27.8223L27.1674 29.8818C27.3979 29.961 27.6341 29.9996 27.8678 29.9996C28.4229 29.9996 28.9629 29.7815 29.3724 29.3719C29.9542 28.7902 30.1496 27.9452 29.8821 27.1669ZM28.1147 28.1143C28.0557 28.1733 27.9293 28.2628 27.7453 28.1997L21.3941 26.0173C21.3002 25.9851 21.2025 25.969 21.1051 25.969C20.9616 25.969 20.8186 26.0037 20.6892 26.0722C18.8537 27.0433 16.7794 27.5584 14.6908 27.5615C7.68588 27.5728 1.89144 21.8832 1.78046 14.8795C1.72462 11.3557 3.06501 8.04392 5.55471 5.55421C8.04442 3.06457 11.3552 1.72442 14.8799 1.78014C21.8836 1.89118 27.5728 7.68275 27.5619 14.6904C27.5586 16.7792 27.0436 18.8534 26.0726 20.6888C25.9577 20.9061 25.9378 21.1613 26.0177 21.3937L28.2 27.7449C28.2633 27.9288 28.1737 28.0553 28.1147 28.1143Z" fill="#FAFAFA"/>
<path d="M14.526 21.2546C14.0608 21.2546 13.6151 21.6637 13.6366 22.144C13.6582 22.6258 14.0274 23.0333 14.526 23.0333C14.9911 23.0333 15.4368 22.6243 15.4153 22.144C15.3937 21.6621 15.0245 21.2546 14.526 21.2546Z" fill="#FAFAFA"/>
<path d="M14.526 7.48096C12.0862 7.48096 10.1013 9.46587 10.1013 11.9057C10.1013 12.3968 10.4995 12.795 10.9906 12.795C11.4817 12.795 11.8799 12.3968 11.8799 11.9057C11.8799 10.4467 13.067 9.25963 14.526 9.25963C15.9849 9.25963 17.172 10.4467 17.172 11.9057C17.172 13.3646 15.9849 14.5517 14.526 14.5517C14.0348 14.5517 13.6366 14.9499 13.6366 15.441V19.0683C13.6366 19.5594 14.0348 19.9576 14.526 19.9576C15.0171 19.9576 15.4153 19.5595 15.4153 19.0682V16.2405C17.4303 15.8277 18.9507 14.0409 18.9507 11.9057C18.9507 9.46587 16.9657 7.48096 14.526 7.48096Z" fill="#FAFAFA"/>
</g>
<defs>
<clipPath id="clip0">
<rect width="30" height="30" fill="white"/>
</clipPath>
</defs>
</svg>
