<svg width="35" height="35" viewBox="0 0 35 35" fill="none" xmlns="http://www.w3.org/2000/svg">
<g clip-path="url(#clip0)">
<path d="M34.4122 15.6463L31.4554 12.9522V4.01881C31.4554 3.45041 30.9946 2.98953 30.4261 2.98953H23.3089C22.7405 2.98953 22.2796 3.45034 22.2796 4.01881V4.59125L18.7088 1.33755C18.0195 0.709399 16.9801 0.709468 16.2911 1.33749L0.587744 15.6464C0.0356732 16.1495 -0.146778 16.9247 0.122968 17.6212C0.392783 18.3177 1.04972 18.7678 1.79668 18.7678H4.30472V33.1042C4.30472 33.6726 4.76553 34.1334 5.334 34.1334H13.9413C14.5097 34.1334 14.9706 33.6726 14.9706 33.1042V24.3995H20.0293V33.1042C20.0293 33.6726 20.4901 34.1335 21.0586 34.1335H29.6656C30.234 34.1335 30.6949 33.6727 30.6948 33.1042V18.7678H33.2034C33.9503 18.7678 34.6073 18.3177 34.8771 17.6213C35.1468 16.9247 34.9644 16.1495 34.4122 15.6463ZM29.6656 16.7093C29.0972 16.7093 28.6363 17.1701 28.6363 17.7385V32.0749H22.0879V23.3703C22.0879 22.8018 21.6271 22.341 21.0586 22.341H13.9413C13.3729 22.341 12.912 22.8018 12.912 23.3703V32.0749H6.36322V17.7385C6.36322 17.1701 5.90241 16.7093 5.33393 16.7093H2.47767L17.5001 3.02097L22.6158 7.68247C22.9171 7.957 23.3521 8.02775 23.7249 7.86321C24.0977 7.69846 24.3383 7.32918 24.3383 6.92163V5.0481H29.397V13.4068C29.397 13.6965 29.5189 13.9726 29.733 14.1677L32.5223 16.7093H29.6656Z" fill="#FAFAFA"/>
</g>
<defs>
<clipPath id="clip0">
<rect width="35" height="35" fill="white"/>
</clipPath>
</defs>
</svg>
