<svg width="30" height="30" viewBox="0 0 30 30" fill="none" xmlns="http://www.w3.org/2000/svg">
<path d="M27.3632 7.08979H14.4752L12.3184 0.601636C12.199 0.2424 11.863 0 11.4844 0H2.63682C1.18294 0 0.00012207 1.18282 0.00012207 2.6367V20.2733C0.00012207 21.7272 1.18294 22.91 2.63682 22.91H12.3221L14.4613 29.3809C14.5795 29.7599 14.93 30 15.3009 30C15.3029 30 15.305 29.9998 15.307 29.9998H27.3632C28.8171 29.9998 29.9999 28.8169 29.9999 27.3631V9.72649C29.9999 8.27261 28.8171 7.08979 27.3632 7.08979ZM2.63682 21.1522C2.15219 21.1522 1.75792 20.7579 1.75792 20.2733V2.6367C1.75792 2.15207 2.15219 1.7578 2.63682 1.7578H10.8504L17.2972 21.1522C14.0047 21.1522 5.88769 21.1522 2.63682 21.1522ZM17.1521 22.91L15.4294 26.7092L14.1735 22.91H17.1521ZM28.2421 27.3631C28.2421 27.8477 27.8478 28.242 27.3632 28.242H16.6645L19.316 22.394C19.4111 22.1843 19.4156 21.952 19.3495 21.7535L15.0595 8.84759H27.3632C27.8478 8.84759 28.2421 9.24186 28.2421 9.72649V27.3631Z" fill="#FAFAFA"/>
<path d="M11.4844 10.6054H8.84774C8.36235 10.6054 7.96884 10.999 7.96884 11.4843C7.96884 11.9697 8.36235 12.3632 8.84774 12.3632H10.4544C10.0916 13.3862 9.11463 14.121 7.96884 14.121C6.51496 14.121 5.33214 12.9382 5.33214 11.4843C5.33214 10.0305 6.51496 8.84764 7.96884 8.84764C8.67313 8.84764 9.33523 9.12192 9.83328 9.6199C10.1765 9.96314 10.733 9.96314 11.0762 9.6199C11.4194 9.27666 11.4194 8.7202 11.0762 8.37696C10.2462 7.54693 9.14264 7.08984 7.96884 7.08984C5.54571 7.08984 3.57434 9.06122 3.57434 11.4843C3.57434 13.9075 5.54571 15.8788 7.96884 15.8788C10.392 15.8788 12.3633 13.9075 12.3633 11.4843C12.3633 10.999 11.9698 10.6054 11.4844 10.6054Z" fill="#FAFAFA"/>
<path d="M25.5468 14.1211H22.9101V13.2422C22.9101 12.7568 22.5166 12.3633 22.0312 12.3633C21.5458 12.3633 21.1523 12.7568 21.1523 13.2422V14.1211H18.5156C18.0302 14.1211 17.6367 14.5146 17.6367 15C17.6367 15.4854 18.0302 15.8789 18.5156 15.8789H23.6214C23.3418 16.71 22.7413 17.695 22.043 18.643C21.8926 18.4399 21.7441 18.232 21.6008 18.0213C21.3278 17.6199 20.7812 17.5158 20.3798 17.7888C19.9784 18.0617 19.8743 18.6084 20.1473 19.0098C20.3938 19.3724 20.6523 19.7253 20.91 20.0597C20.4708 20.5692 20.0378 21.0306 19.6579 21.4039C19.3114 21.7438 19.3062 22.3003 19.6461 22.6468C19.9847 22.9918 20.5411 22.9999 20.889 22.6585C20.9193 22.6288 21.3986 22.1566 22.0388 21.4318C22.6636 22.1466 23.1313 22.6164 23.1676 22.6527C23.5106 22.9957 24.0669 22.9959 24.4102 22.6528C24.7535 22.3097 24.7536 21.7533 24.4106 21.4099C24.4014 21.4007 23.8634 20.8596 23.1767 20.0588C24.4208 18.4505 25.1794 17.0496 25.4421 15.8789H25.5468C26.0322 15.8789 26.4257 15.4854 26.4257 15C26.4257 14.5146 26.0322 14.1211 25.5468 14.1211Z" fill="#FAFAFA"/>
</svg>
