<svg width="90" height="90" viewBox="0 0 90 90" fill="none" xmlns="http://www.w3.org/2000/svg">
<path d="M8.08828 89.9991C12.452 89.9991 17.7624 86.7085 23.8718 80.2189C27.5904 76.2688 32.5662 74.0032 37.5233 74.0032H52.4768C57.4711 74.0032 62.64 76.3268 66.3041 80.2189C72.4996 86.7999 77.6049 89.9991 81.9119 89.9991C84.3197 89.9991 89.9277 88.716 89.9995 76.8316C90.0733 64.653 84.2708 45.6963 75.5156 36.8878C72.1707 33.5225 68.6221 31.8163 64.9684 31.8163C60.3958 31.8163 58.2607 33.2729 56.377 34.5582C54.955 35.5284 53.6048 36.4493 50.7561 36.9843C51.9346 35.1214 52.9101 32.8664 52.9101 30.4977C52.9101 24.9097 47.4847 19.944 46.758 19.3041C45.6009 18.2477 42.3634 14.6671 42.3634 11.8652C42.3634 9.10142 45.6037 5.62064 46.7396 4.61818C47.8324 3.65878 47.9423 1.99538 46.9843 0.900454C46.0252 -0.195528 44.3595 -0.306444 43.2637 0.65243C42.6318 1.20543 37.0899 6.21759 37.0899 11.8652C37.0899 17.4841 42.5989 22.6504 43.2272 23.221C43.2393 23.2319 43.2514 23.2428 43.2637 23.2535C44.3982 24.2462 47.6366 27.7078 47.6366 30.4976C47.6366 32.8221 45.3446 35.6535 43.9424 37.0893H39.8549C36.5808 36.5758 35.1431 35.5952 33.623 34.5579C31.7393 33.2726 29.6041 31.8159 25.0316 31.8159C21.3779 31.8159 17.8292 33.5222 14.4843 36.8875C5.72933 45.6961 -0.0731307 64.6528 0.000696375 76.8315C0.0725899 88.7159 5.68046 89.9991 8.08828 89.9991ZM18.2246 40.6054C20.5433 38.2724 22.8337 37.0896 25.0318 37.0896C27.9768 37.0896 29.0406 37.8156 30.6511 38.9144C34.318 41.4164 37.919 42.363 39.6552 42.363H50.3448C52.1457 42.363 55.7367 41.379 59.3489 38.9144C60.9594 37.8156 62.0232 37.0896 64.9682 37.0896C67.1663 37.0896 69.4565 38.2724 71.7754 40.6054C79.4896 48.3664 84.792 65.9093 84.7261 76.7997C84.7022 80.7448 83.8228 84.7257 81.9117 84.7257C80.6721 84.7257 77.0442 83.9343 70.1437 76.6042C65.4326 71.5999 58.9933 68.7298 52.4768 68.7298H37.5233C31.1185 68.7298 24.7431 71.5999 20.0323 76.6042C13.1317 83.9343 9.38078 84.7257 8.08846 84.7257C6.17739 84.7257 5.29797 80.7448 5.27406 76.7997C5.20797 65.9093 10.5105 48.3664 18.2246 40.6054Z" fill="#3A53C2"/>
<path d="M18.633 58.183H21.2697V60.8196C21.2697 62.2758 22.4502 63.4563 23.9064 63.4563C25.3625 63.4563 26.5431 62.2758 26.5431 60.8196V58.183H29.1798C30.6359 58.183 31.8164 57.0024 31.8164 55.5463C31.8164 54.0901 30.6359 52.9096 29.1798 52.9096H26.5431V50.2729C26.5431 48.8168 25.3625 47.6362 23.9064 47.6362C22.4502 47.6362 21.2697 48.8168 21.2697 50.2729V52.9096H18.633C17.1769 52.9096 15.9963 54.0901 15.9963 55.5463C15.9963 57.0024 17.1769 58.183 18.633 58.183Z" fill="#3A53C2"/>
<path d="M66.0933 52.9097C67.5495 52.9097 68.73 51.7292 68.73 50.2729C68.73 48.8167 67.5495 47.6362 66.0933 47.6362C64.637 47.6362 63.4565 48.8167 63.4565 50.2729C63.4565 51.7292 64.637 52.9097 66.0933 52.9097Z" fill="#3A53C2"/>
<path d="M66.0933 63.4565C67.5495 63.4565 68.73 62.276 68.73 60.8198C68.73 59.3636 67.5495 58.1831 66.0933 58.1831C64.637 58.1831 63.4565 59.3636 63.4565 60.8198C63.4565 62.276 64.637 63.4565 66.0933 63.4565Z" fill="#3A53C2"/>
<path d="M60.8201 58.1831C62.2763 58.1831 63.4568 57.0026 63.4568 55.5464C63.4568 54.0902 62.2763 52.9097 60.8201 52.9097C59.3638 52.9097 58.1833 54.0902 58.1833 55.5464C58.1833 57.0026 59.3638 58.1831 60.8201 58.1831Z" fill="#3A53C2"/>
<path d="M71.3667 58.1831C72.8229 58.1831 74.0034 57.0026 74.0034 55.5464C74.0034 54.0902 72.8229 52.9097 71.3667 52.9097C69.9105 52.9097 68.73 54.0902 68.73 55.5464C68.73 57.0026 69.9105 58.1831 71.3667 58.1831Z" fill="#3A53C2"/>
<path d="M39.7265 58.183H50.2733C51.7294 58.183 52.9099 57.0025 52.9099 55.5464C52.9099 54.0902 51.7294 52.9097 50.2733 52.9097H39.7265C38.2704 52.9097 37.0898 54.0902 37.0898 55.5464C37.0898 57.0025 38.2704 58.183 39.7265 58.183Z" fill="#3A53C2"/>
</svg>
