<svg width="30" height="30" viewBox="0 0 30 30" fill="none" xmlns="http://www.w3.org/2000/svg">
<path d="M29.7469 12.2467C29.6709 11.8371 29.3179 11.5371 28.9012 11.5283C28.4826 11.5192 28.1193 11.8044 28.0261 12.2104C27.132 16.1068 23.7111 18.828 19.7071 18.828C15.0008 18.828 11.1719 14.9992 11.1719 10.2929C11.1719 6.28893 13.8932 2.86805 17.7896 1.97402C18.1956 1.88086 18.4805 1.51541 18.4718 1.09898C18.4631 0.6825 18.1631 0.329297 17.7535 0.253242C16.8483 0.0851953 15.922 0 15 0C10.9934 0 7.22654 1.56029 4.39336 4.39342C1.56029 7.22654 0 10.9934 0 15C0 19.0066 1.56029 22.7735 4.39336 25.6066C7.22654 28.4397 10.9934 30 15 30C19.0066 30 22.7735 28.4397 25.6066 25.6066C28.4397 22.7735 30 19.0066 30 15C30 14.0788 29.9149 13.1525 29.7469 12.2467ZM15 28.2422C7.69822 28.2422 1.75781 22.3018 1.75781 15C1.75781 8.07264 7.10531 2.37047 13.8888 1.80398C13.0661 2.36824 12.323 3.05221 11.6908 3.83607C10.2226 5.65664 9.41402 7.94977 9.41402 10.2929C9.41402 15.9685 14.0314 20.5859 19.707 20.5859C22.0502 20.5859 24.3433 19.7773 26.1639 18.3091C26.9477 17.6769 27.6317 16.9338 28.196 16.1112C27.6295 22.8947 21.9274 28.2422 15 28.2422Z" fill="#FAFAFA"/>
</svg>
