<svg width="35" height="35" viewBox="0 0 35 35" fill="none" xmlns="http://www.w3.org/2000/svg">
<path d="M17.5 0C12.4114 0 8.27148 4.13991 8.27148 9.22852C8.27148 14.3171 12.4114 18.457 17.5 18.457C22.5886 18.457 26.7285 14.3171 26.7285 9.22852C26.7285 4.13991 22.5886 0 17.5 0ZM17.5 16.4062C13.5422 16.4062 10.3223 13.1863 10.3223 9.22852C10.3223 5.27071 13.5422 2.05078 17.5 2.05078C21.4578 2.05078 24.6777 5.27071 24.6777 9.22852C24.6777 13.1863 21.4578 16.4062 17.5 16.4062Z" fill="#FAFAFA"/>
<path d="M28.9821 24.486C26.4555 21.9206 23.1061 20.5078 19.5508 20.5078H15.4492C11.894 20.5078 8.54451 21.9206 6.01795 24.486C3.50376 27.0388 2.11914 30.4085 2.11914 33.9746C2.11914 34.5409 2.57824 35 3.14453 35H31.8555C32.4218 35 32.8809 34.5409 32.8809 33.9746C32.8809 30.4085 31.4962 27.0388 28.9821 24.486ZM4.21504 32.9492C4.72876 27.1328 9.57106 22.5586 15.4492 22.5586H19.5508C25.4289 22.5586 30.2712 27.1328 30.785 32.9492H4.21504Z" fill="#FAFAFA"/>
</svg>
