<svg width="30" height="30" viewBox="0 0 30 30" fill="none" xmlns="http://www.w3.org/2000/svg">
<path d="M29.3283 12.4467L25.8195 11.5952C25.6236 10.9779 25.3766 10.3806 25.0815 9.81023L26.8817 6.81006C27.0892 6.46424 27.0347 6.02156 26.7495 5.73639L24.2637 3.25049C23.9785 2.96531 23.5358 2.91082 23.1901 3.1183L20.1896 4.91842C19.6192 4.62322 19.0218 4.37625 18.4048 4.18043L17.5533 0.67166C17.4577 0.2775 17.1048 0 16.6992 0H13.1836C12.778 0 12.4252 0.2775 12.3295 0.67166L11.478 4.18043C10.861 4.37625 10.2636 4.62328 9.69316 4.91842L6.69281 3.1183C6.34705 2.91082 5.90443 2.96531 5.6192 3.25049L3.1333 5.73633C2.84812 6.0215 2.79363 6.46418 3.00111 6.81L4.80129 9.81018C4.50557 10.3817 4.25812 10.9804 4.06207 11.599L0.665801 12.4481C0.274512 12.5459 0 12.8975 0 13.3008V16.8164C0 17.2197 0.274512 17.5713 0.665742 17.6691L4.06201 18.5181C4.25818 19.1369 4.50545 19.7354 4.80117 20.3069L3.00105 23.3071C2.79357 23.6529 2.84807 24.0956 3.13324 24.3807L5.61914 26.8667C5.90426 27.1519 6.34693 27.2064 6.69281 26.9989L9.69299 25.1988C10.2645 25.4945 10.8632 25.7419 11.4818 25.938L12.3309 29.3343C12.4287 29.7255 12.7803 30 13.1836 30H16.6992C17.1025 30 17.4541 29.7255 17.5519 29.3343L18.401 25.938C19.0196 25.7419 19.6182 25.4945 20.1898 25.1988L23.1899 26.9989C23.5357 27.2064 23.9784 27.1519 24.2636 26.8667L26.7495 24.3807C27.0347 24.0956 27.0892 23.6529 26.8817 23.3071L25.0816 20.3069C25.3767 19.7367 25.6236 19.1394 25.8195 18.5221L29.3283 17.6705C29.7225 17.5749 30 17.222 30 16.8164V13.3008C30 12.8952 29.7225 12.5423 29.3283 12.4467ZM28.2422 16.1253L24.9115 16.9336C24.599 17.0094 24.3529 17.2498 24.2697 17.5605C24.0502 18.3807 23.7266 19.1634 23.308 19.887C23.148 20.1636 23.1506 20.5052 23.3151 20.7793L25.0213 23.623L23.5059 25.1385L20.6623 23.4323C20.3882 23.2678 20.0465 23.2651 19.7699 23.4251C19.0461 23.8438 18.2633 24.1674 17.4432 24.387C17.1347 24.4695 16.8952 24.713 16.8178 25.0228L16.013 28.2422H13.8698L13.065 25.0228C12.9876 24.713 12.7481 24.4695 12.4396 24.387C11.6195 24.1675 10.8367 23.8438 10.1129 23.4251C9.83631 23.2652 9.49465 23.2678 9.22055 23.4323L6.37687 25.1385L4.86146 23.623L6.56771 20.7793C6.73219 20.5052 6.73488 20.1635 6.5748 19.887C6.15615 19.1634 5.8326 18.3807 5.61311 17.5605C5.53055 17.252 5.28709 17.0125 4.97719 16.9351L1.75781 16.1302V13.987L4.97719 13.1821C5.28703 13.1047 5.53049 12.8653 5.61311 12.5567C5.8326 11.7365 6.15621 10.9537 6.57486 10.2301C6.73482 9.95344 6.73213 9.61178 6.56771 9.33773L4.86146 6.494L6.37687 4.97859L9.22072 6.68484C9.49465 6.84926 9.83637 6.85195 10.113 6.69193C10.8371 6.27305 11.6199 5.94949 12.4395 5.73018C12.7502 5.64709 12.9906 5.40094 13.0665 5.0884L13.8747 1.75781H16.0081L16.8163 5.08852C16.8922 5.401 17.1326 5.64715 17.4433 5.73029C18.2629 5.94961 19.0457 6.27316 19.7698 6.69205C20.0463 6.85207 20.3881 6.84937 20.6621 6.68496L23.5059 4.97871L25.0213 6.49412L23.3151 9.33785C23.1507 9.61189 23.1479 9.95356 23.3079 10.2302C23.7267 10.9539 24.0502 11.7366 24.2697 12.5568C24.3529 12.8674 24.599 13.1079 24.9115 13.1837L28.2422 13.9919V16.1253Z" fill="#FAFAFA"/>
<path d="M14.9414 8.90625C11.549 8.90625 8.78906 11.6662 8.78906 15.0586C8.78906 18.451 11.549 21.2109 14.9414 21.2109C18.3338 21.2109 21.0938 18.451 21.0938 15.0586C21.0938 11.6662 18.3338 8.90625 14.9414 8.90625ZM14.9414 19.4531C12.5183 19.4531 10.5469 17.4817 10.5469 15.0586C10.5469 12.6354 12.5183 10.6641 14.9414 10.6641C17.3646 10.6641 19.3359 12.6354 19.3359 15.0586C19.3359 17.4817 17.3646 19.4531 14.9414 19.4531Z" fill="#FAFAFA"/>
</svg>
